<svg width="588" height="88" viewBox="0 0 588 88" fill="none" xmlns="http://www.w3.org/2000/svg">
<path d="M0 66.7591C3.32344 64.6934 3.73887 62.1319 3.73887 56.2653V13.7112C3.73887 7.51405 3.32344 5.28309 0 3.21736V2.96949H40.8784V9.41455C32.4867 7.26619 25.8398 6.43989 19.5252 6.43989H11.2997V30.1544H16.2018C21.0208 30.1544 29.3294 29.7413 36.2255 29.4108V34.2859C29.3294 33.8727 21.1039 33.5422 16.2018 33.5422H11.2997V56.3479C11.2997 62.2146 11.7151 64.7761 15.2048 66.8418V67.0897H0V66.8418V66.7591Z" fill="#2B2423"></path>
<path d="M39.6322 57.3401C39.6322 49.9035 45.4482 47.0941 55.7509 44.1195C63.561 41.8885 67.8815 40.7317 67.9646 34.865C67.9646 30.1552 64.8904 27.511 59.4067 27.511C53.5076 27.511 47.8577 30.8988 47.7746 39.2444H41.2108C41.7924 29.2462 50.5165 24.2885 59.9883 24.2885C68.2969 24.2885 74.6945 27.8415 74.6945 37.4265V57.0096C74.6945 61.9673 76.1901 63.8678 78.6827 63.8678C79.929 63.8678 81.0091 63.5373 81.923 62.7937V65.3552C80.4275 66.7599 78.5165 67.7514 75.8577 67.7514C71.3711 67.7514 68.0476 64.6115 68.0476 57.6706V55.6876C65.8874 62.2979 60.5699 68.1646 51.7628 68.1646C44.7835 68.1646 39.6322 64.6115 39.6322 57.4228V57.3401ZM53.7568 63.7026C62.1485 63.7026 67.9646 56.1833 67.9646 46.1852V41.4753C66.6352 44.1195 62.8132 45.1936 57.3295 47.0115C50.2672 49.2425 46.2791 51.2256 46.2791 56.5965C46.2791 61.9674 49.6856 63.7852 53.7568 63.7852V63.7026Z" fill="#2B2423"></path>
<path d="M81.3415 46.5118C81.3415 32.7127 90.0655 24.4498 102.03 24.4498C113.08 24.4498 119.893 31.4733 120.974 39.7362H114.659C113.745 33.9522 110.505 27.6724 102.113 27.6724C92.8073 27.6724 88.1545 35.3568 88.1545 45.5202C88.1545 55.6836 92.6412 64.1944 102.861 64.1944C111.336 64.1944 115.988 58.2452 117.484 50.3954H121.306C119.81 60.5588 113.08 68.4085 101.282 68.4085C89.4839 68.4085 81.1753 59.9804 81.1753 46.5118H81.3415Z" fill="#2B2423"></path>
<path d="M129.199 54.2861V29.2495H120.225V25.8616H129.199V14.211L135.596 9.00529H136.012V25.9443H150.053V29.3321H136.012V54.2861C136.012 61.7227 139.003 63.6232 142.908 63.6232C146.813 63.6232 149.721 61.3922 151.798 57.1781L152.629 59.8222C150.386 64.9452 145.982 67.9199 140.581 67.9199C134.35 67.9199 129.282 64.8626 129.282 54.3687L129.199 54.2861Z" fill="#2B2423"></path>
<path d="M153.128 46.3466C153.128 33.3738 161.271 24.4498 174.066 24.4498C186.861 24.4498 194.92 33.4564 194.92 46.3466C194.92 59.2367 186.861 68.3259 174.066 68.3259C161.271 68.3259 153.128 59.3194 153.128 46.3466ZM174.066 65.186C182.624 65.186 187.941 58.0799 187.941 46.4292C187.941 34.7785 182.624 27.755 174.066 27.755C165.508 27.755 160.19 34.7785 160.19 46.4292C160.19 58.0799 165.342 65.186 174.066 65.186Z" fill="#2B2423"></path>
<path d="M197.745 66.7562C200.819 64.6905 201.152 62.129 201.152 56.2624V36.5966C201.152 30.3995 200.819 28.0858 197.745 26.1027V25.7722H209.294C208.297 28.0032 208.048 30.3995 208.048 36.5966V38.3319C209.211 32.3826 214.778 24.8633 225.413 24.7807V30.8952C213.532 30.3994 208.131 37.0924 208.048 45.2727V56.5102C208.048 62.2117 208.463 64.6906 211.787 66.6737V66.9215H197.745V66.6737V66.7562Z" fill="#2B2423"></path>
<path d="M225.745 87.0841V81.2174C226.992 81.7958 229.069 82.1263 231.395 82.1263C237.543 82.1263 241.449 78.0775 245.852 67.0052H244.19L232.143 35.7713C230.232 30.8962 228.986 27.8389 226.41 26.1037V25.7732H239.371V26.1037C237.045 27.591 237.793 30.3178 239.621 35.5234L248.594 59.9817L257.318 35.5234C259.229 30.4831 259.561 27.5084 257.152 26.1037V25.7732H267.454V26.1037C265.211 27.6737 263.716 30.4004 261.722 35.5234L249.674 67.0052C243.941 81.8784 238.956 87.8277 230.813 87.8277C228.819 87.8277 227.158 87.4972 225.911 87.0841H225.745Z" fill="#2B2423"></path>
<path d="M383.691 35.5282C383.691 15.2841 397.566 1.81558 417.59 1.81558C432.629 1.81558 444.261 9.3348 447.501 22.3076H440.107C437.282 11.731 429.056 5.45122 417.59 5.45122C401.555 5.45122 391.667 17.9283 391.667 34.5367C391.667 49.9884 400.059 63.2916 417.175 63.2916C431.466 63.2916 440.356 53.5414 442.017 38.5029H413.02V35.0325H448.664V67.2579H445.092L442.682 49.7405H442.101C438.196 60.8128 428.807 68.1668 415.181 68.1668C394.991 68.1668 383.774 53.3762 383.774 35.4456L383.691 35.5282Z" fill="#2B2423"></path>
<path d="M454.314 46.3546C454.314 33.3819 462.457 24.4579 475.252 24.4579C488.047 24.4579 496.107 33.4645 496.107 46.3546C496.107 59.2448 488.047 68.334 475.252 68.334C462.457 68.334 454.314 59.3274 454.314 46.3546ZM475.252 65.1941C483.81 65.1941 489.127 58.0879 489.127 46.4372C489.127 34.7865 483.893 27.7631 475.252 27.7631C466.611 27.7631 461.377 34.7865 461.377 46.4372C461.377 58.0879 466.528 65.1941 475.252 65.1941Z" fill="#2B2423"></path>
<path d="M499.513 46.3546C499.513 33.3819 507.655 24.4579 520.45 24.4579C533.246 24.4579 541.305 33.4645 541.305 46.3546C541.305 59.2448 533.246 68.334 520.45 68.334C507.655 68.334 499.513 59.3274 499.513 46.3546ZM520.45 65.1941C529.008 65.1941 534.326 58.0879 534.326 46.4372C534.326 34.7865 529.091 27.7631 520.45 27.7631C511.809 27.7631 506.575 34.7865 506.575 46.4372C506.575 58.0879 511.726 65.1941 520.45 65.1941Z" fill="#2B2423"></path>
<path d="M577.697 56.3499C575.288 63.1255 570.22 67.8353 562.41 67.8353C551.193 67.8353 544.961 58.3329 544.961 46.4343C544.961 33.7921 552.107 24.455 563.49 24.455C569.306 24.455 574.208 27.0992 577.697 32.47V11.8128C577.697 6.44186 577.365 4.12821 574.789 2.22774V2.06251L584.76 0.823064L585.175 0.988294C584.76 3.46717 584.594 5.20242 584.594 11.8128V56.2672C584.594 62.1339 585.009 64.6954 588 66.7611V67.009H577.199C577.531 63.456 577.697 60.1508 577.697 56.3499ZM564.487 63.8691C572.712 63.8691 577.033 56.763 577.697 47.7564V36.5189C574.706 31.0653 570.303 28.2559 565.151 28.2559C556.677 28.2559 551.941 35.6099 551.941 46.4343C551.941 56.0193 555.68 63.8691 564.487 63.8691Z" fill="#2B2423"></path>
<path d="M265.045 86.678L265.876 83.2901C266.873 83.8685 268.368 84.2817 269.864 84.2817C272.772 84.2817 275.264 82.6291 276.594 77.2582L288.558 29.5812H277.508L278.422 25.9455H289.472L291.882 16.3605C294.873 4.37931 301.852 0 308.997 0C312.404 0 315.146 0.99152 316.807 2.80936L314.813 6.52771C313.567 4.87513 311.49 3.80093 308.582 3.80093C303.514 3.80093 298.944 6.94083 296.618 16.4432L294.208 25.9455H310.908L310.077 29.5812H293.377L281.413 77.3409C279.585 84.5296 275.597 88 270.03 88C268.036 88 266.125 87.5869 265.045 86.678Z" fill="#2B2423"></path>
<path d="M303.514 52.6367C303.514 37.8461 315.395 24.7081 329.52 24.7081C339.075 24.7081 344.475 30.6573 344.475 40.325C344.475 54.8677 332.926 68.3362 318.635 68.3362C308.914 68.3362 303.514 62.1391 303.514 52.5541V52.6367ZM319.3 64.5353C330.6 64.5353 339.739 52.8846 339.739 40.6555C339.739 32.4752 335.502 28.509 328.855 28.509C317.555 28.509 308.416 39.9944 308.416 52.3062C308.416 60.5691 312.653 64.6179 319.3 64.6179V64.5353Z" fill="#2B2423"></path>
<path d="M346.968 56.8514L352.036 36.1941L354.612 26.0307H359.431L356.855 36.1941L356.689 36.7725C359.265 32.3106 365.33 25.4524 375.217 25.3697L374.137 29.9143C364.665 29.9143 357.437 35.4505 354.695 44.8702L351.704 56.7688C351.039 59.3303 350.125 63.2965 349.128 66.9322H344.309L346.885 56.7688L346.968 56.8514Z" fill="#2B2423"></path>
</svg>