<svg width="134" height="88" viewBox="0 0 134 88" fill="none" xmlns="http://www.w3.org/2000/svg">
<g clip-path="url(#clip0_2354_6439)">
<path d="M103.172 1.74092C118.176 1.74107 129.696 9.27379 132.917 22.2336H125.539C122.743 11.6435 114.516 5.38303 103.084 5.38289C87.1574 5.38289 77.2324 17.8314 77.2324 34.5216C77.2326 50.0121 85.6202 63.3088 102.659 63.3088C116.942 63.3088 125.776 53.5025 127.425 38.3393H115.263C110.432 38.3393 102.22 38.7635 95.3545 39.0999L96.4814 34.258C103.098 34.6529 110.696 34.9454 115.263 34.9454H133.985V35.0186H134V67.2876H130.442L128.071 49.7486H127.485C123.592 60.8363 114.267 68.2084 100.712 68.2084C80.6282 68.2083 69.4443 53.3904 69.4443 35.4424C69.4445 15.1979 83.2638 1.74092 103.172 1.74092Z" fill="#2B2423"/>
<path d="M6.10352e-05 66.6874C3.30834 64.6542 3.73286 62.0358 3.73286 56.1848V13.589C3.73286 7.40152 3.30834 5.11961 6.10352e-05 3.08636V2.83769H40.6802V9.27386C32.2924 7.15285 25.6758 6.30445 19.4106 6.30445H11.1984V56.1848C11.1984 62.0212 11.623 64.6542 15.0923 66.6874V66.9361H6.10352e-05V66.6874Z" fill="#2B2423"/>
<path d="M20.9623 86.6396L21.8114 83.246C22.8214 83.8458 24.2706 84.2553 25.793 84.2553C28.6768 84.2553 31.136 82.5585 32.4828 77.2194L47.736 16.3245C50.7076 4.31517 57.6608 1.52588e-05 64.7751 1.52588e-05C68.1712 1.52588e-05 70.8793 1.00932 72.5774 2.7939L70.6305 6.52395C69.3569 4.82714 67.3222 3.81783 64.4384 3.81783C59.3589 3.81783 54.8649 6.94815 52.4935 16.4415L37.3281 77.3364C35.5422 84.5333 31.5605 88 25.9687 88C24.0218 88 22.0749 87.5758 20.9623 86.6396Z" fill="#2B2423"/>
<path d="M8.79773 35.0188H39.4652H44.3837C49.2144 35.0188 57.4265 34.5945 64.2919 34.258L63.1648 39.1006C56.5482 38.7056 48.9509 38.413 44.3837 38.413H8.79773" fill="#2B2423"/>
</g>
<defs>
<clipPath id="clip0_2354_6439">
<rect width="134" height="88" fill="white"/>
</clipPath>
</defs>
</svg>
